# xmcd
#
# Track frame offsets: 
#        151
#        10858
#        27155
#        35298
#        49383
#        61050
#        72569
#        86644
#        97215
#        111084
#
# Disc length: 1674 seconds
#
# Revision: 0
# Processed by: cddbd v1.5.2PL0 Copyright (c) Steve Scherf et al.
# Submitted via: ExactAudioCopy v0.99pb3
#
DISCID=8306880a
DTITLE=Stan Corliss - Westerner
DYEAR=1900
DGENRE=Folk
TTITLE0=Back in the Saddle with Gene
TTITLE1=Every Cowboy Knows There's a God Above
TTITLE2=A Cowboy's Last Wish
TTITLE3=Songs of the Sons of the Pioneers
TTITLE4=Roy Rogers
TTITLE5=The Comancheros
TTITLE6=My Rifle, My Pony and Me
TTITLE7=Ten Guage Shot Gun
TTITLE8=One More Waltz
TTITLE9=You Can Go to Hell, I'm Going to Texas
EXTD=
EXTT0=
EXTT1=
EXTT2=
EXTT3=
EXTT4=
EXTT5=
EXTT6=
EXTT7=
EXTT8=
EXTT9=
PLAYORDER=
